<?xml version="1.0" encoding="UTF-8"?>
<svg version="1.1" xmlns="http://www.w3.org/2000/svg" width="225" height="225">
<path d="M0 0 C74.25 0 148.5 0 225 0 C225 74.25 225 148.5 225 225 C150.75 225 76.5 225 0 225 C0 150.75 0 76.5 0 0 Z " fill="#FDFDFD" transform="translate(0,0)"/>
<path d="M0 0 C58.83221477 0 58.83221477 0 70.97265625 10.74609375 C84.06358047 24.58507079 86.52305904 43.48288715 86.21875 61.703125 C85.59503526 78.71494445 80.92386898 96.76179321 68.3125 108.875 C49.65544121 124.03386027 20.91556902 118 0 118 C0 79.06 0 40.12 0 0 Z " fill="#0A49C5" transform="translate(33,38)"/>
<path d="M0 0 C9.24 0 18.48 0 28 0 C28 30.36 28 60.72 28 92 C50.77 91.505 50.77 91.505 74 91 C74 100.24 74 109.48 74 119 C49.58 119 25.16 119 0 119 C0 105.47 0 91.94 0 78 C-0.66 78 -1.32 78 -2 78 C-1.9278125 77.46117188 -1.855625 76.92234375 -1.78125 76.3671875 C-1.05303466 69.91439042 -0.95615319 63.54493096 -1 57.0625 C-1.03989306 45.07728586 -0.7915995 33.10602117 -0.5 21.125 C-0.45158898 19.05729713 -0.40341101 16.98958879 -0.35546875 14.921875 C-0.24007101 9.94783444 -0.11995723 4.97394084 0 0 Z " fill="#8AD0FB" transform="translate(119,37)"/>
<path d="M0 0 C18.05211172 0 18.05211172 0 24.375 5.6875 C30.97368247 13.45239257 30.46041745 22.16588277 30.375 31.875 C30.38660156 33.18597656 30.39820312 34.49695313 30.41015625 35.84765625 C30.38277473 44.94744676 30.18867421 54.49082754 23.625 61.5 C23.06039062 62.1290625 22.49578125 62.758125 21.9140625 63.40625 C15.20139497 68.99557317 9.0355292 67 0 67 C0 44.89 0 22.78 0 0 Z " fill="#F9FBFC" transform="translate(60,63)"/>
<path d="M0 0 C49 0 49 0 53 2 C37.82 2.33 22.64 2.66 7 3 C6.42826241 8.7173759 5.86377499 14.40073583 5.4375 20.125 C5.31181641 21.79949219 5.31181641 21.79949219 5.18359375 23.5078125 C5.12300781 24.33023438 5.06242187 25.15265625 5 26 C4.01 26 3.02 26 2 26 C2 47.12 2 68.24 2 90 C2.99 90 3.98 90 5 90 C5.144375 91.134375 5.28875 92.26875 5.4375 93.4375 C5.61171478 96.80777201 5.61171478 96.80777201 7 98 C8.06409865 103.50966636 8.01633327 108.46662998 7 114 C7 114.66 7 115.32 7 116 C7.66418945 115.93941406 8.32837891 115.87882812 9.01269531 115.81640625 C12.09132794 115.53876335 15.1706315 115.26935375 18.25 115 C19.29414062 114.90460938 20.33828125 114.80921875 21.4140625 114.7109375 C28.62837115 114.08747873 35.76017868 113.88307153 43 114 C43 114.66 43 115.32 43 116 C44.32 116 45.64 116 47 116 C47 115.34 47 114.68 47 114 C49.64 114 52.28 114 55 114 C55 111.36 55 108.72 55 106 C59.62 106 64.24 106 69 106 C67.78744322 109.63767035 66.83725007 110.05441005 63.625 112 C62.83351562 112.495 62.04203125 112.99 61.2265625 113.5 C41.72905195 122.56421798 21.81166156 118 0 118 C0 79.06 0 40.12 0 0 Z " fill="#0834B9" transform="translate(33,38)"/>
<path d="M0 0 C0.33 0 0.66 0 1 0 C1.06058594 0.91523438 1.12117188 1.83046875 1.18359375 2.7734375 C1.26738281 3.96195313 1.35117187 5.15046875 1.4375 6.375 C1.51871094 7.55835938 1.59992187 8.74171875 1.68359375 9.9609375 C1.81084936 12.91518901 1.81084936 12.91518901 3 15 C3.66 14.01 4.32 13.02 5 12 C5.66 16.62 6.32 21.24 7 26 C8.59328125 25.855625 10.1865625 25.71125 11.828125 25.5625 C13.96872616 25.37472797 16.10935254 25.18724339 18.25 25 C19.81621094 24.85691406 19.81621094 24.85691406 21.4140625 24.7109375 C28.62837115 24.08747873 35.76017868 23.88307153 43 24 C43 24.66 43 25.32 43 26 C44.32 26 45.64 26 47 26 C47 25.34 47 24.68 47 24 C49.64 24 52.28 24 55 24 C55 21.36 55 18.72 55 16 C59.62 16 64.24 16 69 16 C67.78744322 19.63767035 66.83725007 20.05441005 63.625 22 C62.83351562 22.495 62.04203125 22.99 61.2265625 23.5 C52.88543398 27.37771592 44.75756513 28.438244 35.64453125 28.29296875 C34.10305672 28.28660149 34.10305672 28.28660149 32.53044128 28.28010559 C29.29084579 28.2634907 26.05190323 28.22587183 22.8125 28.1875 C20.59831636 28.17243091 18.38412284 28.15874643 16.16992188 28.14648438 C10.77950212 28.11621246 5.39047038 28.05745863 0 28 C0 18.76 0 9.52 0 0 Z " fill="#072893" transform="translate(33,128)"/>
<path d="M0 0 C0.94875 0.350625 1.8975 0.70125 2.875 1.0625 C5.87060172 2.35026777 5.87060172 2.35026777 8 1 C9.31899235 4.95697704 9.14270714 8.74269783 9.1328125 12.8671875 C9.13376923 13.73892609 9.13472595 14.61066467 9.13571167 15.50881958 C9.13639213 17.35304842 9.13454718 19.19727967 9.13037109 21.04150391 C9.12503383 23.85715152 9.13031396 26.67263869 9.13671875 29.48828125 C9.13605769 31.28125035 9.13477596 33.07421935 9.1328125 34.8671875 C9.13483673 35.70692108 9.13686096 36.54665466 9.13894653 37.41183472 C9.12301919 41.40746103 8.99395695 45.10017487 8 49 C7.34 49 6.68 49 6 49 C5.505 47.515 5.505 47.515 5 46 C4.67 46.99 4.34 47.98 4 49 C3.67 47.68 3.34 46.36 3 45 C2.34 45 1.68 45 1 45 C1.24230347 43.73071655 1.24230347 43.73071655 1.48950195 42.43579102 C2.30134904 36.97183884 2.18596017 31.51987838 2.18530273 26.00463867 C2.18749763 23.93973422 2.20571568 21.87535769 2.22460938 19.81054688 C2.22654297 18.50021484 2.22847656 17.18988281 2.23046875 15.83984375 C2.23457764 14.64738037 2.23868652 13.45491699 2.24291992 12.22631836 C2.00215824 9.02866448 1.23919478 6.92010402 0 4 C0 2.68 0 1.36 0 0 Z " fill="#0C56E5" transform="translate(87,71)"/>
<path d="M0 0 C0.33 0 0.66 0 1 0 C1 2.64 1 5.28 1 8 C23.77 8 46.54 8 70 8 C70.33 6.68 70.66 5.36 71 4 C71.66 3.67 72.32 3.34 73 3 C73 5.97 73 8.94 73 12 C48.91 12 24.82 12 0 12 C0 8.04 0 4.08 0 0 Z " fill="#5FBCF4" transform="translate(119,144)"/>
<path d="M0 0 C7.96153846 0 7.96153846 0 12 3 C14 5 14 5 14.3125 8.875 C14.24121642 11.68051797 14.04683491 12.91302088 12.6875 15.4375 C8.7927241 19.04377398 5.53321574 18 0 18 C0 12.06 0 6.12 0 0 Z " fill="#1A1A1A" transform="translate(44,168)"/>
<path d="M0 0 C6.90527663 -0.04589918 13.81002443 -0.08572898 20.71533203 -0.10986328 C23.06463413 -0.11992384 25.41392369 -0.13357373 27.76318359 -0.15087891 C31.13902885 -0.17512452 34.5147086 -0.18648259 37.890625 -0.1953125 C38.94179504 -0.20563507 39.99296509 -0.21595764 41.07598877 -0.22659302 C42.05670349 -0.22674408 43.03741821 -0.22689514 44.04785156 -0.22705078 C44.90944885 -0.231492 45.77104614 -0.23593323 46.65875244 -0.24050903 C49 0 49 0 53 2 C37.82 2.33 22.64 2.66 7 3 C6.67 5.97 6.34 8.94 6 12 C5.34 12.66 4.68 13.32 4 14 C3.38943913 16.02213278 2.85636005 18.06827978 2.375 20.125 C2.11460938 21.22070312 1.85421875 22.31640625 1.5859375 23.4453125 C1.39257812 24.28835937 1.19921875 25.13140625 1 26 C0.67 26 0.34 26 0 26 C0 17.42 0 8.84 0 0 Z " fill="#0837A5" transform="translate(33,38)"/>
<path d="M0 0 C9.24 0 18.48 0 28 0 C28 30.36 28 60.72 28 92 C27.67 92 27.34 92 27 92 C26.66218885 87.81284871 26.3305515 83.62523015 26 79.4375 C25.90460938 78.25607422 25.80921875 77.07464844 25.7109375 75.85742188 C25.26898095 70.22247585 24.8671874 64.65283608 25 59 C25.33 59 25.66 59 26 59 C26.020625 57.700625 26.04125 56.40125 26.0625 55.0625 C26.07410156 54.33160156 26.08570313 53.60070312 26.09765625 52.84765625 C26.01650861 50.48139116 25.78272144 48.26500487 25.47265625 45.92382812 C24.91869505 41.01848395 25.04946627 36.28999192 25.33984375 31.37109375 C25.40855431 30.05843285 25.40855431 30.05843285 25.47865295 28.71925354 C25.62473923 25.95824909 25.78093984 23.19792828 25.9375 20.4375 C26.03908421 18.55146841 26.14000189 16.66540079 26.24023438 14.77929688 C26.4845569 10.18562966 26.74258629 5.59302645 27 1 C18.09 1 9.18 1 0 1 C0 0.67 0 0.34 0 0 Z " fill="#BAE1F6" transform="translate(119,37)"/>
<path d="M0 0 C0.99 0.66 1.98 1.32 3 2 C2.67 2.99 2.34 3.98 2 5 C-0.64 4.67 -3.28 4.34 -6 4 C-6 7.3 -6 10.6 -6 14 C-3.02934491 13.65772428 -3.02934491 13.65772428 0 13 C0.33 12.34 0.66 11.68 1 11 C-0.32 11 -1.64 11 -3 11 C-3 10.01 -3 9.02 -3 8 C-0.36 8 2.28 8 5 8 C5.3125 10.75 5.3125 10.75 5 14 C2.43393265 16.86795763 0.79972291 17.86671285 -3 18.5 C-6.69203416 17.88466097 -8.34016868 16.58383614 -11 14 C-12.42662219 11.14675563 -12.31033868 9.16545451 -12 6 C-8.47342317 0.71013475 -6.29687311 -0.38552284 0 0 Z " fill="#0C0C0C" transform="translate(78,168)"/>
<path d="M0 0 C1.32 0 2.64 0 4 0 C5.0063655 2.43504509 6.00526413 4.87270864 7 7.3125 C7.28617188 8.00279297 7.57234375 8.69308594 7.8671875 9.40429688 C9.08910744 12.41545674 10 14.71886984 10 18 C8.68 18 7.36 18 6 18 C5.67 17.01 5.34 16.02 5 15 C2.69 14.67 0.38 14.34 -2 14 C-2.33 15.32 -2.66 16.64 -3 18 C-4.32 18 -5.64 18 -7 18 C-5.26375242 11.5811453 -3.14819255 5.86215164 0 0 Z " fill="#292929" transform="translate(110,168)"/>
<path d="M0 0 C0.33 0 0.66 0 1 0 C1 15.84 1 31.68 1 48 C0.34 48 -0.32 48 -1 48 C-1.33 53.28 -1.66 58.56 -2 64 C-2.33 64 -2.66 64 -3 64 C-3.07855758 51.65773083 -2.83205144 39.33715962 -2.5 27 C-2.45163339 25.14583827 -2.40345523 23.29167161 -2.35546875 21.4375 C-2.2391438 16.95827378 -2.1202964 12.47912125 -2 8 C-1.34 8 -0.68 8 0 8 C0 5.36 0 2.72 0 0 Z " fill="#0A54E7" transform="translate(59,64)"/>
<path d="M0 0 C9.02878048 1.40728803 14.91697598 7.33257709 20.26953125 14.39453125 C22.90561302 18.36353021 26 23.09462674 26 28 C25.34 28 24.68 28 24 28 C23.67 26.02 23.34 24.04 23 22 C22.34 22 21.68 22 21 22 C21 21.34 21 20.68 21 20 C20.01 19.67 19.02 19.34 18 19 C18 18.34 18 17.68 18 17 C17.34 17 16.68 17 16 17 C15.34 16.34 14.68 15.68 14 15 C13.01 14.67 12.02 14.34 11 14 C11 13.34 11 12.68 11 12 C9.68 11.67 8.36 11.34 7 11 C7 9.35 7 7.7 7 6 C4.69 6.33 2.38 6.66 0 7 C0.66 6.34 1.32 5.68 2 5 C1.01 4.34 0.02 3.68 -1 3 C-0.67 2.01 -0.34 1.02 0 0 Z " fill="#1146B6" transform="translate(89,41)"/>
<path d="M0 0 C3.63 0 7.26 0 11 0 C11 1.32 11 2.64 11 4 C9.02 4 7.04 4 5 4 C5 4.99 5 5.98 5 7 C6.65 7 8.3 7 10 7 C10 8.32 10 9.64 10 11 C8.02 11 6.04 11 4 11 C4 13.31 4 15.62 4 18 C2.68 18 1.36 18 0 18 C0 12.06 0 6.12 0 0 Z " fill="#2B2B2B" transform="translate(158,168)"/>
<path d="M0 0 C3.3 0 6.6 0 10 0 C10 1.32 10 2.64 10 4 C8.02 4 6.04 4 4 4 C4 5.32 4 6.64 4 8 C5.65 8 7.3 8 9 8 C9 8.99 9 9.98 9 11 C7.02 11 5.04 11 3 11 C3 12.32 3 13.64 3 15 C5.31 15 7.62 15 10 15 C10 15.99 10 16.98 10 18 C6.7 18 3.4 18 0 18 C0 12.06 0 6.12 0 0 Z " fill="#080808" transform="translate(171,168)"/>
<path d="M0 0 C9.57 0 19.14 0 29 0 C29 1.98 29 3.96 29 6 C22.4 6 15.8 6 9 6 C10.32 5.34 11.64 4.68 13 4 C10.36 3.67 7.72 3.34 5 3 C5 2.67 5 2.34 5 2 C3.35 1.67 1.7 1.34 0 1 C0 0.67 0 0.34 0 0 Z " fill="#6BC0FA" transform="translate(163,130)"/>
<path d="M0 0 C4.62 0 9.24 0 14 0 C12.54875777 4.3537267 9.77410946 5.33794125 5.90625 7.56640625 C0.38633367 10.2892682 -5.90781218 13.05434241 -12 11 C-10.68 10.67 -9.36 10.34 -8 10 C-8 9.34 -8 8.68 -8 8 C-5.36 8 -2.72 8 0 8 C0 5.36 0 2.72 0 0 Z " fill="#0A3BA4" transform="translate(88,144)"/>
<path d="M0 0 C0.33 0 0.66 0 1 0 C1 2.97 1 5.94 1 9 C-9.56 9 -20.12 9 -31 9 C-31 8.34 -31 7.68 -31 7 C-21.29046527 5.71153094 -11.81996112 4.65942331 -2 5 C-1.855625 4.360625 -1.71125 3.72125 -1.5625 3.0625 C-1 1 -1 1 0 0 Z " fill="#42B2F5" transform="translate(191,147)"/>
<path d="M0 0 C4.29 0 8.58 0 13 0 C13 1.32 13 2.64 13 4 C11.68 4 10.36 4 9 4 C9 8.62 9 13.24 9 18 C7.68 18 6.36 18 5 18 C5 13.38 5 8.76 5 4 C3.35 4 1.7 4 0 4 C0 2.68 0 1.36 0 0 Z " fill="#202020" transform="translate(90,168)"/>
<path d="M0 0 C6.76594019 -0.11381955 13.28837062 0.11978631 20 1 C19.525625 1.45375 19.05125 1.9075 18.5625 2.375 C16.90972192 3.93258204 16.90972192 3.93258204 16 6 C14.04174127 6.02694851 12.08337774 6.04637218 10.125 6.0625 C9.03445312 6.07410156 7.94390625 6.08570313 6.8203125 6.09765625 C4 6 4 6 2 5 C2 4.34 2 3.68 2 3 C1.34 3 0.68 3 0 3 C0 3.99 0 4.98 0 6 C-5.75 6.125 -5.75 6.125 -8 5 C-7.67 3.68 -7.34 2.36 -7 1 C-7 1.99 -7 2.98 -7 4 C-5.02 4 -3.04 4 -1 4 C-0.67 2.68 -0.34 1.36 0 0 Z " fill="#7CC7FB" transform="translate(152,130)"/>
<path d="M0 0 C0.33 0 0.66 0 1 0 C1 14.85 1 29.7 1 45 C-2.40644644 38.18710713 -4.78397206 30.68292616 -4 23 C-3 20.5625 -3 20.5625 -2 19 C-1.67 19 -1.34 19 -1 19 C-0.67 12.73 -0.34 6.46 0 0 Z " fill="#ECF6FA" transform="translate(118,37)"/>
<path d="M0 0 C5.96952059 8.95428088 3.71470934 26.71174394 2 37 C1.01 37 0.02 37 -1 37 C-1 34.36 -1 31.72 -1 29 C-0.67 29 -0.34 29 0 29 C0.33 26.36 0.66 23.72 1 21 C0.34 21 -0.32 21 -1 21 C-1.02710123 18.4374282 -1.04688771 15.87514635 -1.0625 13.3125 C-1.07087891 12.59126953 -1.07925781 11.87003906 -1.08789062 11.12695312 C-1.10543632 7.28444618 -0.93524221 3.73360474 0 0 Z " fill="#1950BE" transform="translate(116,75)"/>
<path d="M0 0 C0.33 0 0.66 0 1 0 C1 2.64 1 5.28 1 8 C1.99 8 2.98 8 4 8 C4.144375 9.134375 4.28875 10.26875 4.4375 11.4375 C4.61171478 14.80777201 4.61171478 14.80777201 6 16 C6.28469564 17.46948963 6.5044763 18.95191805 6.6875 20.4375 C6.79449219 21.24058594 6.90148438 22.04367188 7.01171875 22.87109375 C7 25 7 25 5 27 C4.67 26.01 4.34 25.02 4 24 C3.34 25.32 2.68 26.64 2 28 C-0.13540594 21.9384737 -0.23853866 16.45123306 -0.125 10.0625 C-0.11597656 9.09248047 -0.10695312 8.12246094 -0.09765625 7.12304688 C-0.07426107 4.74843593 -0.04148176 2.37435224 0 0 Z " fill="#093CA6" transform="translate(34,120)"/>
<path d="M0 0 C1.5546875 1.71875 1.5546875 1.71875 3 4 C2.5782552 11.76010426 -2.61183401 19.84599373 -7 26 C-7.66 26 -8.32 26 -9 26 C-9 21.71 -9 17.42 -9 13 C-5.86650268 11.95550089 -5.01031744 12.06576355 -2 13 C-1.66127487 11.58461283 -1.32925376 10.16762037 -1 8.75 C-0.814375 7.96109375 -0.62875 7.1721875 -0.4375 6.359375 C0.12154828 3.74443998 0.12154828 3.74443998 0 0 Z " fill="#0841B3" transform="translate(113,116)"/>
<path d="M0 0 C-0.33 0.66 -0.66 1.32 -1 2 C-0.34 2.33 0.32 2.66 1 3 C-4.28 3.66 -9.56 4.32 -15 5 C-15.33 7.64 -15.66 10.28 -16 13 C-16.66 13 -17.32 13 -18 13 C-18.33 9.37 -18.66 5.74 -19 2 C-16.39740876 1.46989799 -13.793443 0.95062205 -11.1875 0.4375 C-10.44951172 0.28603516 -9.71152344 0.13457031 -8.95117188 -0.02148438 C-3.33984375 -1.11328125 -3.33984375 -1.11328125 0 0 Z " fill="#0A4FD5" transform="translate(75,59)"/>
<path d="M0 0 C0.66 0 1.32 0 2 0 C2 13.53 2 27.06 2 41 C1.67 41 1.34 41 1 41 C1 31.76 1 22.52 1 13 C0.34 13 -0.32 13 -1 13 C-1 13.66 -1 14.32 -1 15 C-1.99 15 -2.98 15 -4 15 C-3.52396226 12.87429688 -3.04407402 10.74945573 -2.5625 8.625 C-2.29566406 7.44164063 -2.02882813 6.25828125 -1.75390625 5.0390625 C-1 2 -1 2 0 0 Z " fill="#E8F3F9" transform="translate(117,115)"/>
<path d="M0 0 C1.32 0 2.64 0 4 0 C4 5.94 4 11.88 4 18 C2.68 18 1.36 18 0 18 C0 12.06 0 6.12 0 0 Z " fill="#3B3B3B" transform="translate(60,168)"/>
<path d="M0 0 C1.32 0 2.64 0 4 0 C4 5.94 4 11.88 4 18 C2.68 18 1.36 18 0 18 C0 12.06 0 6.12 0 0 Z " fill="#020202" transform="translate(85,168)"/>
<path d="M0 0 C1.32 0 2.64 0 4 0 C4 5.94 4 11.88 4 18 C2.68 18 1.36 18 0 18 C0 12.06 0 6.12 0 0 Z " fill="#1D1D1D" transform="translate(152,168)"/>
<path d="M0 0 C0.99 0 1.98 0 3 0 C3 4.62 3 9.24 3 14 C4.98 14 6.96 14 9 14 C9 14.99 9 15.98 9 17 C6.03 17 3.06 17 0 17 C0 11.39 0 5.78 0 0 Z " fill="#030303" transform="translate(140,169)"/>
<path d="M0 0 C0.99 0 1.98 0 3 0 C3 4.62 3 9.24 3 14 C4.98 14 6.96 14 9 14 C9 14.99 9 15.98 9 17 C6.03 17 3.06 17 0 17 C0 11.39 0 5.78 0 0 Z " fill="#030303" transform="translate(122,169)"/>
<path d="M0 0 C0.99 0.66 1.98 1.32 3 2 C2.67 2.99 2.34 3.98 2 5 C-0.64 4.67 -3.28 4.34 -6 4 C-6.33 6.31 -6.66 8.62 -7 11 C-7.66 10.01 -8.32 9.02 -9 8 C-9.99 9.32 -10.98 10.64 -12 12 C-12.35671933 8.16526716 -12.29771416 6.44657125 -10.125 3.1875 C-6.79669717 -0.23869409 -4.69815964 -0.28764243 0 0 Z " fill="#202020" transform="translate(78,168)"/>
<path d="M0 0 C3.3 0 6.6 0 10 0 C10 1.32 10 2.64 10 4 C8.02 4 6.04 4 4 4 C4 5.32 4 6.64 4 8 C3.34 8 2.68 8 2 8 C1.67 8.66 1.34 9.32 1 10 C0 9 0 9 -0.09765625 6.93359375 C-0.06510417 4.62239583 -0.03255208 2.31119792 0 0 Z " fill="#252525" transform="translate(171,168)"/>
<path d="M0 0 C-0.33 0.99 -0.66 1.98 -1 3 C-4.0000624 3.02721831 -6.99987256 3.04694378 -10 3.0625 C-11.25876953 3.07506836 -11.25876953 3.07506836 -12.54296875 3.08789062 C-17.79319339 3.10824033 -22.80455662 2.76368207 -28 2 C-28 1.67 -28 1.34 -28 1 C-18.65190221 0.33566818 -9.37877608 -0.1598655 0 0 Z " fill="#083999" transform="translate(76,152)"/>
<path d="M0 0 C5 1 5 1 6 2 C6.4640884 7.33701657 6.4640884 7.33701657 4.6875 9.875 C3 11 3 11 0 11 C0 7.37 0 3.74 0 0 Z " fill="#DDDDDD" transform="translate(48,172)"/>
<path d="M0 0 C1.51953125 1.08203125 1.51953125 1.08203125 3 3 C3.07421875 6.13671875 3.07421875 6.13671875 2.6875 9.6875 C2.56761719 10.86699219 2.44773437 12.04648437 2.32421875 13.26171875 C2.21722656 14.16535156 2.11023437 15.06898437 2 16 C1.01 16 0.02 16 -1 16 C-1 18.64 -1 21.28 -1 24 C-1.33 24 -1.66 24 -2 24 C-2.26305952 15.7574683 -1.60614551 8.08808989 0 0 Z " fill="#0742B4" transform="translate(36,48)"/>
<path d="M0 0 C0.99 0 1.98 0 3 0 C2.67 5.94 2.34 11.88 2 18 C1.67 18 1.34 18 1 18 C0.67 19.98 0.34 21.96 0 24 C-0.33 24 -0.66 24 -1 24 C-1.02712325 21.12493579 -1.04689851 18.25013092 -1.0625 15.375 C-1.07087891 14.56675781 -1.07925781 13.75851563 -1.08789062 12.92578125 C-1.1058955 8.49658082 -0.89622662 4.36116576 0 0 Z " fill="#1D62E6" transform="translate(91,80)"/>
<path d="M0 0 C2.72957339 2.35735884 3.88893396 4.58133526 5 8 C5 8.99 5 9.98 5 11 C3.68 11 2.36 11 1 11 C0.67 10.01 0.34 9.02 0 8 C-1.65 7.67 -3.3 7.34 -5 7 C-4.67 6.01 -4.34 5.02 -4 4 C-3.01 4 -2.02 4 -1 4 C-0.67 2.68 -0.34 1.36 0 0 Z " fill="#0B0B0B" transform="translate(115,175)"/>
<path d="M0 0 C0.66 0 1.32 0 2 0 C2.05407567 2.58361518 2.093707 5.16609255 2.125 7.75 C2.14175781 8.47960937 2.15851562 9.20921875 2.17578125 9.9609375 C2.21072239 13.8044624 2.17499684 16.74606772 0 20 C-2.14006369 13.57980892 -0.95781181 6.58495622 0 0 Z " fill="#054CD1" transform="translate(58,112)"/>
<path d="M0 0 C4.51478398 0.53115106 7.34666857 2.36620292 11 5 C7.3791799 6.01382963 3.72188582 6.49897691 0 7 C0.66 6.34 1.32 5.68 2 5 C1.01 4.34 0.02 3.68 -1 3 C-0.67 2.01 -0.34 1.02 0 0 Z " fill="#0C40AE" transform="translate(89,41)"/>
<path d="M0 0 C0.33 0 0.66 0 1 0 C1.10834375 4.44209357 0.70173653 8.61414671 0 13 C-1.32 13 -2.64 13 -4 13 C-4 12.34 -4 11.68 -4 11 C-4.66 10.67 -5.32 10.34 -6 10 C-5.02526874 8.33073546 -4.04510211 6.66464358 -3.0625 5 C-2.24458984 3.6078125 -2.24458984 3.6078125 -1.41015625 2.1875 C-0.71212891 1.1046875 -0.71212891 1.1046875 0 0 Z " fill="#F5F8F3" transform="translate(112,130)"/>
<path d="M0 0 C0.66 0.66 1.32 1.32 2 2 C2.99 2 3.98 2 5 2 C4.01 3.485 4.01 3.485 3 5 C2.78685015 8.4103976 2.915106 10.74531799 4 14 C2.68 14.99 1.36 15.98 0 17 C0 11.39 0 5.78 0 0 Z " fill="#CDCDCD" transform="translate(64,169)"/>
<path d="M0 0 C6.45027515 0.26327654 9.47915791 2.50664023 14 7 C10.06204091 8.22419163 7.83887763 7.48320272 4 6 C4.33 5.34 4.66 4.68 5 4 C3.74458443 1.48916886 2.49936512 1.12874554 0 0 Z " fill="#EDF3F7" transform="translate(72,64)"/>
<path d="M0 0 C1.32 0.66 2.64 1.32 4 2 C3 4 3 4 0.63671875 4.88671875 C-0.33652344 5.15097656 -1.30976562 5.41523438 -2.3125 5.6875 C-3.27800781 5.95949219 -4.24351563 6.23148438 -5.23828125 6.51171875 C-7.95205711 6.99152353 -9.43665005 6.90721887 -12 6 C-10.68 5.67 -9.36 5.34 -8 5 C-8 4.34 -8 3.68 -8 3 C-5.36 3 -2.72 3 0 3 C0 2.01 0 1.02 0 0 Z " fill="#0B3597" transform="translate(88,149)"/>
<path d="M0 0 C2.97 0 5.94 0 9 0 C9 1.65 9 3.3 9 5 C7.3125 5.75 7.3125 5.75 5 6 C2.25 4.1875 2.25 4.1875 0 2 C0 1.34 0 0.68 0 0 Z " fill="#1356D9" transform="translate(79,64)"/>
<path d="M0 0 C1.56640625 1.69921875 1.56640625 1.69921875 3 4 C2.41058135 10.17338477 -0.74445608 15.83603378 -4 21 C-5.03864166 17.88407501 -5.09036928 16.9737344 -4 14 C-3.34 13.67 -2.68 13.34 -2 13 C-1.30862927 11.01924593 -1.30862927 11.01924593 -0.875 8.6875 C-0.62363281 7.51767578 -0.62363281 7.51767578 -0.3671875 6.32421875 C0.10403188 3.73367445 0.10403188 3.73367445 0 0 Z " fill="#1545A7" transform="translate(113,116)"/>
<path d="M0 0 C1.98 0 3.96 0 6 0 C5.67 2.31 5.34 4.62 5 7 C4.34 6.34 3.68 5.68 3 5 C2.01 8.465 2.01 8.465 1 12 C0.67 12 0.34 12 0 12 C0 8.04 0 4.08 0 0 Z " fill="#082D95" transform="translate(33,38)"/>
<path d="M0 0 C0.33 0 0.66 0 1 0 C1.05389087 1.95803507 1.09274217 3.91648909 1.125 5.875 C1.14820312 6.96554688 1.17140625 8.05609375 1.1953125 9.1796875 C1 12 1 12 -1 14 C-1.99 12.68 -2.98 11.36 -4 10 C-3.34 9.34 -2.68 8.68 -2 8 C-1.32707499 6.03309626 -1.32707499 6.03309626 -0.875 3.875 C-0.58625 2.59625 -0.2975 1.3175 0 0 Z " fill="#E9E9E9" transform="translate(84,174)"/>
<path d="M0 0 C3.96189783 4.23513217 5.43181728 8.547001 7 14 C6.34 14 5.68 14 5 14 C4.67 12.02 4.34 10.04 4 8 C3.34 8 2.68 8 2 8 C2 7.34 2 6.68 2 6 C1.01 5.67 0.02 5.34 -1 5 C-0.67 3.35 -0.34 1.7 0 0 Z " fill="#1F4EB2" transform="translate(108,55)"/>
<path d="M0 0 C2.97 0.495 2.97 0.495 6 1 C6 1.66 6 2.32 6 3 C5.01 3 4.02 3 3 3 C3.33 3.99 3.66 4.98 4 6 C0.09161134 6 -1.11594107 4.49432124 -4 2 C-2.68 1.67 -1.36 1.34 0 1 C0 0.67 0 0.34 0 0 Z " fill="#E7F0F0" transform="translate(98,40)"/>
<path d="M0 0 C0.99 0 1.98 0 3 0 C3 2.97 3 5.94 3 9 C2.01 9.33 1.02 9.66 0 10 C0 6.7 0 3.4 0 0 Z " fill="#010101" transform="translate(61,169)"/>
<path d="M0 0 C0.33 0 0.66 0 1 0 C1.07654536 4.51617599 1.10228696 8.59085217 0 13 C-0.66 13 -1.32 13 -2 13 C-2.33 10.36 -2.66 7.72 -3 5 C-2.34 5 -1.68 5 -1 5 C-0.67 3.35 -0.34 1.7 0 0 Z " fill="#0C53D9" transform="translate(95,107)"/>
<path d="M0 0 C1.98 0 3.96 0 6 0 C6 2.62113708 5.68707555 4.50935112 5 7 C5 6.01 5 5.02 5 4 C3.35 4 1.7 4 0 4 C0 2.68 0 1.36 0 0 Z " fill="#D1D1D1" transform="translate(175,172)"/>
<path d="M0 0 C-0.33 1.32 -0.66 2.64 -1 4 C-1.66 4 -2.32 4 -3 4 C-3.66 3.34 -4.32 2.68 -5 2 C-5.99 1.67 -6.98 1.34 -8 1 C-7 -1 -7 -1 -5.125 -1.75 C-3 -2 -3 -2 0 0 Z " fill="#073FAF" transform="translate(108,54)"/>
<path d="M0 0 C0.66 0 1.32 0 2 0 C2 3.3 2 6.6 2 10 C1.01 9.67 0.02 9.34 -1 9 C-0.67 6.03 -0.34 3.06 0 0 Z " fill="#B9DCF4" transform="translate(118,106)"/>
<path d="M0 0 C0.33 0 0.66 0 1 0 C1.25 6.625 1.25 6.625 -1 10 C-2 9 -2 9 -2.1875 6.125 C-2 3 -2 3 0 0 Z " fill="#093FB7" transform="translate(116,110)"/>
<path d="M0 0 C1.32 0 2.64 0 4 0 C4 1.65 4 3.3 4 5 C3.01 5.33 2.02 5.66 1 6 C0.67 4.02 0.34 2.04 0 0 Z " fill="#161616" transform="translate(85,168)"/>
<path d="M0 0 C2.64 0 5.28 0 8 0 C7.67 0.99 7.34 1.98 7 3 C4.36 3 1.72 3 -1 3 C-0.67 2.01 -0.34 1.02 0 0 Z " fill="#1344AA" transform="translate(94,144)"/>
<path d="M0 0 C-0.99 1.485 -0.99 1.485 -2 3 C-4.64 2.67 -7.28 2.34 -10 2 C-10 1.67 -10 1.34 -10 1 C-8.71073008 0.63720544 -7.41846728 0.28503302 -6.125 -0.0625 C-5.40570313 -0.25972656 -4.68640625 -0.45695313 -3.9453125 -0.66015625 C-2 -1 -2 -1 0 0 Z " fill="#CBD4E8" transform="translate(90,154)"/>
<path d="M0 0 C0.66 1.32 1.32 2.64 2 4 C1.01 5.485 1.01 5.485 0 7 C-0.66 7 -1.32 7 -2 7 C-2 5.02 -2 3.04 -2 1 C-1.34 0.67 -0.68 0.34 0 0 Z " fill="#0F3DA8" transform="translate(106,135)"/>
<path d="M0 0 C0.33 0 0.66 0 1 0 C1.125 2.875 1.125 2.875 1 6 C0.34 6.66 -0.32 7.32 -1 8 C-1.99 7.67 -2.98 7.34 -4 7 C-2.68 4.69 -1.36 2.38 0 0 Z " fill="#E2EBF4" transform="translate(112,130)"/>
<path d="M0 0 C4 1 4 1 5.3125 2.8125 C6 5 6 5 5 9 C3.35 6.03 1.7 3.06 0 0 Z " fill="#E3EFF5" transform="translate(107,53)"/>
<path d="M0 0 C-0.33 0.99 -0.66 1.98 -1 3 C-2.9375 3.8125 -2.9375 3.8125 -5 4 C-5.66 3.34 -6.32 2.68 -7 2 C-4 0 -4 0 0 0 Z " fill="#E2E2E2" transform="translate(79,179)"/>
<path d="M0 0 C1.65 0 3.3 0 5 0 C5 0.99 5 1.98 5 3 C3.02 3 1.04 3 -1 3 C-0.67 2.01 -0.34 1.02 0 0 Z " fill="#131313" transform="translate(175,176)"/>
</svg>
